# Blender v2.67 (sub 0) OBJ File: 'ring.blend'
# www.blender.org
mtllib ring.mtl
o Circle
v -0.002027 0.008693 -0.500017
v -0.099572 0.008693 -0.490410
v -0.193368 0.008693 -0.461957
v -0.279812 0.008693 -0.415752
v -0.355580 0.008693 -0.353570
v -0.417762 0.008693 -0.277802
v -0.463966 0.008693 -0.191359
v -0.492419 0.008693 -0.097562
v -0.502027 0.008693 -0.000017
v -0.492419 0.008693 0.097528
v -0.463966 0.008693 0.191325
v -0.417762 0.008693 0.277768
v -0.355580 0.008693 0.353536
v -0.279812 0.008693 0.415718
v -0.193368 0.008693 0.461923
v -0.099572 0.008693 0.490376
v -0.002027 0.008693 0.499983
v 0.095519 0.008693 0.490376
v 0.189315 0.008693 0.461923
v 0.275759 0.008693 0.415718
v 0.351527 0.008693 0.353536
v 0.413708 0.008693 0.277768
v 0.459913 0.008693 0.191324
v 0.488366 0.008693 0.097528
v 0.497973 0.008693 -0.000018
v 0.488366 0.008693 -0.097563
v 0.459913 0.008693 -0.191359
v 0.413708 0.008693 -0.277803
v 0.351526 0.008693 -0.353571
v 0.275758 0.008693 -0.415752
v 0.189314 0.008693 -0.461957
v 0.095518 0.008693 -0.490410
v -0.002027 0.008682 -0.487015
v -0.097035 0.008682 -0.477658
v -0.188393 0.008682 -0.449945
v -0.272588 0.008682 -0.404941
v -0.346386 0.008682 -0.344377
v -0.406951 0.008682 -0.270579
v -0.451954 0.008682 -0.186383
v -0.479667 0.008682 -0.095026
v -0.489025 0.008682 -0.000017
v -0.479667 0.008682 0.094992
v -0.451954 0.008682 0.186349
v -0.406951 0.008682 0.270545
v -0.346386 0.008682 0.344343
v -0.272588 0.008682 0.404907
v -0.188393 0.008682 0.449911
v -0.097035 0.008682 0.477624
v -0.002027 0.008682 0.486981
v 0.092982 0.008682 0.477624
v 0.184340 0.008682 0.449911
v 0.268535 0.008682 0.404907
v 0.342333 0.008682 0.344342
v 0.402898 0.008682 0.270544
v 0.447901 0.008682 0.186349
v 0.475614 0.008682 0.094991
v 0.484972 0.008682 -0.000018
v 0.475614 0.008682 -0.095026
v 0.447901 0.008682 -0.186384
v 0.402897 0.008682 -0.270579
v 0.342333 0.008682 -0.344377
v 0.268534 0.008682 -0.404942
v 0.184339 0.008682 -0.449945
v 0.092981 0.008682 -0.477658
vn -0.000413 1.000000 -0.000772
vn 0.000413 1.000000 -0.000772
vn 0.000871 1.000000 -0.000086
vn 0.000555 1.000000 0.000676
vn -0.000413 1.000000 0.000772
vn -0.000871 1.000000 0.000086
vn -0.000555 1.000000 -0.000676
vn 0.000254 1.000000 -0.000837
vn 0.000837 1.000000 -0.000254
vn 0.000676 1.000000 0.000555
vn -0.000254 1.000000 0.000837
vn -0.000837 1.000000 0.000254
vn -0.000676 1.000000 -0.000555
vn 0.000086 1.000000 -0.000871
vn 0.000772 1.000000 -0.000413
vn 0.000772 1.000000 0.000413
vn 0.000086 1.000000 0.000871
vn -0.000086 1.000000 0.000871
vn -0.000772 1.000000 0.000413
vn -0.000772 1.000000 -0.000413
vn -0.000086 1.000000 -0.000871
vn 0.000676 1.000000 -0.000555
vn 0.000837 1.000000 0.000254
vn 0.000254 1.000000 0.000837
vn -0.000676 1.000000 0.000555
vn -0.000837 1.000000 -0.000254
vn -0.000254 1.000000 -0.000837
vn 0.000555 1.000000 -0.000676
vn 0.000871 1.000000 0.000086
vn 0.000413 1.000000 0.000772
vn -0.000555 1.000000 0.000676
vn -0.000871 1.000000 -0.000086
usemtl None
s off
f 19//1 20//1 51//1
f 14//2 15//2 47//2
f 9//3 10//3 42//3
f 4//4 5//4 37//4
f 30//5 31//5 62//5
f 25//6 26//6 57//6
f 20//7 21//7 52//7
f 15//8 16//8 48//8
f 10//9 11//9 43//9
f 5//10 6//10 38//10
f 31//11 32//11 63//11
f 26//12 27//12 58//12
f 21//13 22//13 53//13
f 16//14 17//14 49//14
f 11//15 12//15 44//15
f 6//16 7//16 39//16
f 1//17 2//17 34//17
f 32//18 1//18 64//18
f 27//19 28//19 59//19
f 22//20 23//20 54//20
f 17//21 18//21 49//21
f 12//22 13//22 44//22
f 7//23 8//23 40//23
f 2//24 3//24 35//24
f 28//25 29//25 60//25
f 23//26 24//26 55//26
f 18//27 19//27 50//27
f 13//28 14//28 46//28
f 8//29 9//29 41//29
f 3//30 4//30 36//30
f 29//31 30//31 61//31
f 24//32 25//32 56//32
f 20//1 52//1 51//1
f 46//2 14//2 47//2
f 41//3 9//3 42//3
f 36//4 4//4 37//4
f 31//5 63//5 62//5
f 26//6 58//6 57//6
f 21//7 53//7 52//7
f 47//8 15//8 48//8
f 42//9 10//9 43//9
f 37//10 5//10 38//10
f 32//11 64//11 63//11
f 27//12 59//12 58//12
f 22//13 54//13 53//13
f 48//14 16//14 49//14
f 43//15 11//15 44//15
f 38//16 6//16 39//16
f 33//17 1//17 34//17
f 1//18 33//18 64//18
f 28//19 60//19 59//19
f 23//20 55//20 54//20
f 18//21 50//21 49//21
f 13//22 45//22 44//22
f 39//23 7//23 40//23
f 34//24 2//24 35//24
f 29//25 61//25 60//25
f 24//26 56//26 55//26
f 19//27 51//27 50//27
f 45//28 13//28 46//28
f 40//29 8//29 41//29
f 35//30 3//30 36//30
f 30//31 62//31 61//31
f 25//32 57//32 56//32
