# Blender v2.67 (sub 0) OBJ File: 'ring.blend'
# www.blender.org
mtllib ring.mtl
o Sphere_Sphere.001
v -0.971242 0.012037 -0.249317
v -0.712423 0.012038 -0.697604
v -0.264136 0.012038 -0.956423
v 0.253502 0.012038 -0.956423
v 0.701789 0.012038 -0.697604
v 0.960608 0.012038 -0.249317
v 0.960608 0.012038 0.268321
v 0.701789 0.012038 0.716609
v 0.253502 0.012038 0.975428
v -0.264136 0.012038 0.975427
v -0.712424 0.012038 0.716608
v -0.971242 0.012038 0.268321
v -0.971242 0.012037 -0.249317
v -0.712423 0.012038 -0.697604
v -0.264136 0.012038 -0.956423
v 0.253502 0.012038 -0.956423
v 0.701789 0.012038 -0.697604
v 0.960608 0.012038 -0.249317
v 0.960608 0.012038 0.268321
v 0.701789 0.012038 0.716609
v 0.253502 0.012038 0.975428
v -0.264136 0.012038 0.975427
v -0.712424 0.012038 0.716608
v -0.971242 0.012038 0.268321
v -0.930226 0.011777 -0.243034
v -0.681840 0.011777 -0.673252
v -0.251622 0.011777 -0.921638
v 0.245150 0.011777 -0.921638
v 0.675368 0.011777 -0.673252
v 0.923754 0.011777 -0.243034
v 0.923754 0.011777 0.253738
v 0.675368 0.011777 0.683956
v 0.245150 0.011777 0.932342
v -0.251622 0.011777 0.932342
v -0.681840 0.011777 0.683956
v -0.930226 0.011777 0.253738
vn 0.000000 0.000000 0.000000
vn -0.005264 -0.999982 0.003039
vn 0.006428 -0.999972 -0.003711
vn -0.006345 -0.999980 0.000000
vn 0.007061 -0.999975 0.000000
vn 0.005748 -0.999978 0.003319
vn 0.005829 0.999977 0.003365
vn 0.003136 -0.999980 0.005432
vn 0.003576 0.999974 0.006194
vn -0.000000 -0.999982 0.006040
vn -0.000000 0.999972 0.007481
vn -0.002986 -0.999982 0.005172
vn 0.003793 -0.999971 -0.006570
vn -0.006344 -0.999980 0.000000
vn -0.002986 -0.999982 0.005173
usemtl None
s off
f 4//1 5//1 17//1
f 11//1 12//1 24//1
f 5//1 6//1 18//1
f 12//1 1//1 13//1
f 6//1 7//1 19//1
f 7//1 8//1 20//1
f 2//1 1//1 13//1
f 8//1 9//1 21//1
f 3//1 2//1 14//1
f 9//1 10//1 22//1
f 4//1 3//1 15//1
f 10//1 11//1 23//1
f 23//2 24//2 36//2
f 17//3 18//3 30//3
f 24//4 13//4 25//4
f 18//5 19//5 31//5
f 19//6 20//6 32//6
f 14//7 13//7 25//7
f 20//8 21//8 33//8
f 15//9 14//9 26//9
f 21//10 22//10 33//10
f 16//11 15//11 28//11
f 22//12 23//12 35//12
f 16//13 17//13 29//13
f 16//1 4//1 17//1
f 23//1 11//1 24//1
f 17//1 5//1 18//1
f 24//1 12//1 13//1
f 18//1 6//1 19//1
f 19//1 7//1 20//1
f 14//1 2//1 13//1
f 20//1 8//1 21//1
f 15//1 3//1 14//1
f 21//1 9//1 22//1
f 16//1 4//1 15//1
f 22//1 10//1 23//1
f 35//2 23//2 36//2
f 29//3 17//3 30//3
f 36//14 24//14 25//14
f 30//5 18//5 31//5
f 31//6 19//6 32//6
f 26//7 14//7 25//7
f 32//8 20//8 33//8
f 27//9 15//9 26//9
f 22//10 34//10 33//10
f 15//11 27//11 28//11
f 34//15 22//15 35//15
f 28//13 16//13 29//13
