# Blender v2.66 (sub 1) OBJ File: 'small_tank.blend'
# www.blender.org
v 0.039157 0.000409 -0.027097
v 0.246140 0.000409 -0.027097
v 0.035794 -0.013140 -0.023467
v 0.246140 -0.013140 -0.023467
v 0.030003 -0.023058 -0.013549
v 0.246140 -0.023058 -0.013549
v 0.027014 -0.026689 0.000000
v 0.246140 -0.026689 0.000000
v 0.030003 -0.023058 0.013549
v 0.246140 -0.023058 0.013549
v 0.035794 -0.013140 0.023467
v 0.246140 -0.013140 0.023467
v 0.039157 0.000409 0.027097
v 0.246140 0.000409 0.027097
v 0.035794 0.013957 0.023467
v 0.246140 0.013957 0.023467
v 0.030003 0.023876 0.013549
v 0.246140 0.023876 0.013549
v 0.027014 0.027506 0.000000
v 0.246140 0.027506 0.000000
v 0.030003 0.023876 -0.013549
v 0.246140 0.023876 -0.013549
v 0.035794 0.013957 -0.023467
v 0.246140 0.013957 -0.023467
v 0.246140 0.000409 -0.033755
v 0.246140 -0.016469 -0.029233
v 0.246140 -0.028824 -0.016877
v 0.246140 -0.033346 0.000000
v 0.246140 -0.028824 0.016877
v 0.246140 -0.016469 0.029233
v 0.246140 0.000409 0.033755
v 0.246140 0.017286 0.029233
v 0.246140 0.029641 0.016877
v 0.246140 0.034163 0.000000
v 0.246140 0.029641 -0.016877
v 0.246140 0.017286 -0.029232
v 0.348101 0.000409 -0.033755
v 0.348101 -0.016469 -0.029233
v 0.348101 -0.028824 -0.016877
v 0.348101 -0.033346 0.000000
v 0.348101 -0.028824 0.016877
v 0.348101 -0.016469 0.029233
v 0.348101 0.000409 0.033755
v 0.348101 0.017286 0.029233
v 0.348101 0.029641 0.016877
v 0.348101 0.034163 0.000000
v 0.348101 0.029641 -0.016877
v 0.348101 0.017286 -0.029232
v 0.348101 0.000409 -0.022607
v 0.348101 -0.010895 -0.019578
v 0.348101 -0.019170 -0.011304
v 0.348101 -0.022199 0.000000
v 0.348101 -0.019170 0.011304
v 0.348101 -0.010895 0.019579
v 0.348101 0.000409 0.022607
v 0.348101 0.011712 0.019579
v 0.348101 0.019987 0.011304
v 0.348101 0.023016 0.000000
v 0.348101 0.019987 -0.011304
v 0.348101 0.011712 -0.019578
v 0.051471 0.000409 -0.022607
v 0.051471 -0.010895 -0.019578
v 0.051471 -0.019170 -0.011304
v 0.051471 -0.022199 0.000000
v 0.051471 -0.019170 0.011304
v 0.051471 -0.010895 0.019579
v 0.051471 0.000409 0.022607
v 0.051471 0.011712 0.019579
v 0.051471 0.019987 0.011304
v 0.051471 0.023016 0.000000
v 0.051471 0.019987 -0.011304
v 0.051471 0.011712 -0.019578
v -0.000008 0.039243 -0.089185
v -0.000008 0.039243 0.089185
v 0.019612 0.033986 -0.089185
v 0.019612 0.033986 0.089185
v 0.030439 -0.023152 0.089185
v 0.030439 -0.023152 -0.089185
v 0.039232 0.000003 -0.089185
v 0.039232 0.000003 0.089185
v 0.019612 -0.033979 -0.089185
v 0.019612 -0.033979 0.089185
v -0.000008 -0.039236 -0.089185
v -0.000008 -0.039236 0.089185
v -0.019627 -0.033979 -0.089185
v -0.019627 -0.033979 0.089185
v -0.033990 -0.019617 -0.089185
v -0.033990 -0.019617 0.089185
v -0.039247 0.000003 -0.089185
v -0.039247 0.000003 0.089185
v -0.033990 0.019623 -0.089185
v -0.033990 0.019623 0.089185
v -0.019627 0.033986 -0.089185
v -0.019627 0.033986 0.089185
v 0.029809 0.023789 -0.089185
v 0.029809 0.023789 0.089185
v 0.027066 -0.026525 -0.089185
v 0.026472 0.027126 -0.089185
v 0.026472 0.027126 0.089185
v 0.035747 -0.013003 -0.089185
v 0.035747 -0.013003 0.089185
v 0.035491 0.013966 0.089185
v 0.035491 0.013966 -0.089185
v 0.027066 -0.026525 0.089185
vt 0.057500 0.245000
vt 0.057500 0.005000
vt 0.005000 0.245000
vt 0.005000 0.307500
vt 0.245000 0.307500
vt 0.005000 0.255000
vt 0.120000 0.245000
vt 0.120000 0.005000
vt 0.067500 0.005000
vt 0.005000 0.370000
vt 0.245000 0.370000
vt 0.005000 0.317500
vt 0.182500 0.245000
vt 0.182500 0.005000
vt 0.130000 0.245000
vt 0.192500 0.245000
vt 0.432500 0.245000
vt 0.192500 0.192500
vt 0.495000 0.495000
vt 0.495000 0.255000
vt 0.442500 0.255000
vt 0.005000 0.432500
vt 0.245000 0.432500
vt 0.245000 0.380000
vt 0.307500 0.495000
vt 0.307500 0.255000
vt 0.255000 0.495000
vt 0.192500 0.182500
vt 0.432500 0.182500
vt 0.432500 0.130000
vt 0.932500 0.942500
vt 0.880000 0.942500
vt 0.932500 0.995000
vt 0.495000 0.245000
vt 0.495000 0.005000
vt 0.442500 0.005000
vt 0.192500 0.120000
vt 0.432500 0.120000
vt 0.432500 0.067500
vt 0.370000 0.255000
vt 0.317500 0.255000
vt 0.317500 0.495000
vt 0.995000 0.630000
vt 0.942500 0.630000
vt 0.995000 0.682500
vt 0.995000 0.692500
vt 0.942500 0.692500
vt 0.995000 0.745000
vt 0.870000 0.942500
vt 0.817500 0.942500
vt 0.870000 0.995000
vt 0.995000 0.442500
vt 0.942500 0.442500
vt 0.995000 0.495000
vt 0.995000 0.505000
vt 0.942500 0.505000
vt 0.995000 0.557500
vt 0.995000 0.567500
vt 0.942500 0.567500
vt 0.995000 0.620000
vt 0.057500 0.942500
vt 0.005000 0.942500
vt 0.057500 0.995000
vt 0.245000 0.942500
vt 0.192500 0.942500
vt 0.245000 0.995000
vt 0.807500 0.942500
vt 0.755000 0.942500
vt 0.807500 0.995000
vt 0.995000 0.005000
vt 0.942500 0.005000
vt 0.995000 0.057500
vt 0.995000 0.192500
vt 0.942500 0.192500
vt 0.995000 0.245000
vt 0.995000 0.255000
vt 0.942500 0.255000
vt 0.942500 0.307500
vt 0.245000 0.682500
vt 0.245000 0.630000
vt 0.005000 0.682500
vt 0.745000 0.505000
vt 0.692500 0.505000
vt 0.692500 0.745000
vt 0.495000 0.682500
vt 0.495000 0.630000
vt 0.255000 0.682500
vt 0.682500 0.505000
vt 0.630000 0.505000
vt 0.682500 0.745000
vt 0.245000 0.745000
vt 0.245000 0.692500
vt 0.005000 0.692500
vt 0.620000 0.505000
vt 0.567500 0.505000
vt 0.620000 0.745000
vt 0.495000 0.745000
vt 0.495000 0.692500
vt 0.255000 0.692500
vt 0.745000 0.255000
vt 0.692500 0.255000
vt 0.692500 0.495000
vt 0.745000 0.807500
vt 0.745000 0.755000
vt 0.505000 0.755000
vt 0.745000 0.005000
vt 0.692500 0.005000
vt 0.692500 0.245000
vt 0.245000 0.807500
vt 0.245000 0.755000
vt 0.005000 0.807500
vt 0.557500 0.505000
vt 0.505000 0.505000
vt 0.505000 0.745000
vt 0.932500 0.630000
vt 0.880000 0.630000
vt 0.880000 0.682500
vt 0.932500 0.567500
vt 0.880000 0.567500
vt 0.880000 0.620000
vt 0.995000 0.880000
vt 0.942500 0.880000
vt 0.942500 0.932500
vt 0.932500 0.880000
vt 0.880000 0.880000
vt 0.880000 0.932500
vt 0.932500 0.817500
vt 0.880000 0.817500
vt 0.880000 0.870000
vt 0.870000 0.880000
vt 0.817500 0.880000
vt 0.817500 0.932500
vt 0.932500 0.692500
vt 0.880000 0.692500
vt 0.880000 0.745000
vt 0.807500 0.880000
vt 0.755000 0.880000
vt 0.755000 0.932500
vt 0.932500 0.505000
vt 0.880000 0.505000
vt 0.880000 0.557500
vt 0.870000 0.817500
vt 0.817500 0.817500
vt 0.817500 0.870000
vt 0.807500 0.817500
vt 0.755000 0.817500
vt 0.755000 0.870000
vt 0.981983 0.404377
vt 0.974913 0.404377
vt 0.988106 0.407912
vt 0.245000 0.932500
vt 0.245000 0.880000
vt 0.005000 0.932500
vt 0.870000 0.505000
vt 0.817500 0.505000
vt 0.817500 0.745000
vt 0.995000 0.807500
vt 0.995000 0.755000
vt 0.755000 0.807500
vt 0.932500 0.255000
vt 0.880000 0.255000
vt 0.880000 0.495000
vt 0.745000 0.995000
vt 0.745000 0.942500
vt 0.505000 0.942500
vt 0.932500 0.005000
vt 0.880000 0.005000
vt 0.932500 0.245000
vt 0.495000 0.995000
vt 0.495000 0.942500
vt 0.255000 0.942500
vt 0.870000 0.005000
vt 0.817500 0.005000
vt 0.870000 0.245000
vt 0.495000 0.932500
vt 0.495000 0.880000
vt 0.255000 0.880000
vt 0.870000 0.255000
vt 0.817500 0.255000
vt 0.870000 0.495000
vt 0.745000 0.932500
vt 0.745000 0.880000
vt 0.505000 0.932500
vt 0.807500 0.245000
vt 0.807500 0.005000
vt 0.755000 0.005000
vt 0.505000 0.870000
vt 0.745000 0.870000
vt 0.745000 0.817500
vt 0.807500 0.495000
vt 0.807500 0.255000
vt 0.755000 0.255000
vt 0.005000 0.870000
vt 0.245000 0.870000
vt 0.005000 0.817500
vt 0.807500 0.745000
vt 0.807500 0.505000
vt 0.755000 0.505000
vt 0.255000 0.807500
vt 0.495000 0.807500
vt 0.255000 0.755000
vt 0.682500 0.495000
vt 0.682500 0.255000
vt 0.630000 0.495000
vt 0.255000 0.620000
vt 0.495000 0.620000
vt 0.255000 0.567500
vt 0.682500 0.245000
vt 0.682500 0.005000
vt 0.630000 0.245000
vt 0.005000 0.620000
vt 0.245000 0.620000
vt 0.245000 0.567500
vt 0.620000 0.245000
vt 0.620000 0.005000
vt 0.567500 0.245000
vt 0.005000 0.557500
vt 0.245000 0.557500
vt 0.005000 0.505000
vt 0.620000 0.495000
vt 0.620000 0.255000
vt 0.567500 0.255000
vt 0.992968 0.069560
vt 0.992684 0.124897
vt 0.992968 0.180234
vt 0.255000 0.557500
vt 0.495000 0.557500
vt 0.495000 0.505000
vt 0.557500 0.005000
vt 0.505000 0.005000
vt 0.505000 0.245000
vt 0.005000 0.495000
vt 0.245000 0.495000
vt 0.005000 0.442500
vt 0.557500 0.255000
vt 0.505000 0.255000
vt 0.505000 0.495000
vt 0.944135 0.180953
vt 0.944659 0.125384
vt 0.944138 0.069817
vt 0.192500 0.057500
vt 0.432500 0.057500
vt 0.432500 0.005000
vt 0.432500 0.495000
vt 0.432500 0.255000
vt 0.380000 0.495000
vt 0.255000 0.870000
vt 0.495000 0.870000
vt 0.255000 0.817500
vt 0.134535 0.956214
vt 0.131604 0.961290
vt 0.135960 0.953745
vt 0.088431 0.990453
vt 0.077803 0.984317
vt 0.100703 0.990453
vt 0.005000 0.005000
vt 0.245000 0.255000
vt 0.067500 0.245000
vt 0.245000 0.317500
vt 0.130000 0.005000
vt 0.432500 0.192500
vt 0.442500 0.495000
vt 0.005000 0.380000
vt 0.255000 0.255000
vt 0.192500 0.130000
vt 0.880000 0.995000
vt 0.442500 0.245000
vt 0.192500 0.067500
vt 0.370000 0.495000
vt 0.942500 0.682500
vt 0.942500 0.745000
vt 0.817500 0.995000
vt 0.942500 0.495000
vt 0.942500 0.557500
vt 0.942500 0.620000
vt 0.005000 0.995000
vt 0.192500 0.995000
vt 0.755000 0.995000
vt 0.942500 0.057500
vt 0.942500 0.245000
vt 0.995000 0.307500
vt 0.005000 0.630000
vt 0.745000 0.745000
vt 0.255000 0.630000
vt 0.630000 0.745000
vt 0.005000 0.745000
vt 0.567500 0.745000
vt 0.255000 0.745000
vt 0.745000 0.495000
vt 0.505000 0.807500
vt 0.745000 0.245000
vt 0.005000 0.755000
vt 0.557500 0.745000
vt 0.932500 0.682500
vt 0.932500 0.620000
vt 0.995000 0.932500
vt 0.932500 0.932500
vt 0.932500 0.870000
vt 0.870000 0.932500
vt 0.932500 0.745000
vt 0.807500 0.932500
vt 0.932500 0.557500
vt 0.870000 0.870000
vt 0.807500 0.870000
vt 0.968789 0.407912
vt 0.965254 0.414035
vt 0.965254 0.421106
vt 0.968789 0.427229
vt 0.974913 0.430764
vt 0.981983 0.430764
vt 0.988106 0.427229
vt 0.991641 0.421106
vt 0.991641 0.414035
vt 0.005000 0.880000
vt 0.870000 0.745000
vt 0.755000 0.755000
vt 0.932500 0.495000
vt 0.505000 0.995000
vt 0.880000 0.245000
vt 0.255000 0.995000
vt 0.817500 0.245000
vt 0.255000 0.932500
vt 0.817500 0.495000
vt 0.505000 0.880000
vt 0.755000 0.245000
vt 0.505000 0.817500
vt 0.755000 0.495000
vt 0.245000 0.817500
vt 0.755000 0.745000
vt 0.495000 0.755000
vt 0.630000 0.255000
vt 0.495000 0.567500
vt 0.630000 0.005000
vt 0.005000 0.567500
vt 0.567500 0.005000
vt 0.245000 0.505000
vt 0.567500 0.495000
vt 0.973302 0.069560
vt 0.973302 0.180234
vt 0.255000 0.505000
vt 0.557500 0.245000
vt 0.245000 0.442500
vt 0.557500 0.495000
vt 0.965085 0.180953
vt 0.965088 0.069817
vt 0.192500 0.005000
vt 0.380000 0.255000
vt 0.495000 0.817500
vt 0.131604 0.973561
vt 0.137740 0.984189
vt 0.148368 0.990325
vt 0.160640 0.990325
vt 0.171268 0.984189
vt 0.177404 0.973561
vt 0.177404 0.961290
vt 0.171268 0.950662
vt 0.165752 0.947477
vt 0.163256 0.946036
vt 0.156503 0.944526
vt 0.148368 0.944526
vt 0.140805 0.948892
vt 0.071667 0.973689
vt 0.071667 0.967828
vt 0.071667 0.964977
vt 0.073436 0.958353
vt 0.077803 0.950790
vt 0.084848 0.946722
vt 0.091452 0.944654
vt 0.094334 0.944654
vt 0.100703 0.944654
vt 0.111331 0.950790
vt 0.117467 0.961417
vt 0.117467 0.973689
vt 0.111331 0.984317
vn 0.711417 0.000916 -0.702719
vn -0.770257 0.000000 -0.637715
vn 0.616932 -0.603412 -0.505173
vn -0.770257 -0.318857 -0.552263
vn 0.513962 -0.828303 -0.223029
vn -0.770257 -0.552263 -0.318857
vn -0.770257 -0.637715 0.000000
vn -0.762169 -0.647328 0.000000
vn 0.513962 -0.828303 0.223029
vn -0.770257 -0.552263 0.318857
vn 0.616932 -0.603412 0.505173
vn -0.770257 -0.318857 0.552263
vn 0.711417 0.000916 0.702719
vn -0.770257 0.000000 0.637715
vn -0.770257 0.318857 0.552263
vn 0.612842 0.605304 0.507920
vn -0.770257 0.552263 0.318857
vn 0.497360 0.836848 0.228645
vn -0.223121 0.974761 0.000000
vn -0.770257 0.637715 0.000000
vn -0.770257 0.552263 -0.318857
vn -1.000000 -0.000000 0.000000
vn 0.612842 0.605304 -0.507920
vn -0.770257 0.318857 -0.552263
vn 0.497360 0.836848 -0.228645
vn -0.653218 -0.378552 0.655721
vn -0.653218 -0.655721 0.378552
vn 0.653218 -0.655721 0.378552
vn 1.000000 -0.000000 0.000000
vn -0.653218 0.378552 -0.655721
vn -0.653218 0.655721 -0.378552
vn 0.653218 0.378552 -0.655721
vn -0.653218 0.000000 0.757134
vn 0.653218 -0.378552 0.655721
vn -0.653218 -0.378552 -0.655721
vn -0.653218 0.000000 -0.757134
vn 0.653218 -0.378552 -0.655721
vn 0.653218 0.000000 -0.757134
vn -0.653218 0.378552 0.655721
vn 0.653218 0.000000 0.757134
vn -0.653218 -0.655721 -0.378552
vn 0.653218 -0.655721 -0.378552
vn -0.653218 0.655721 0.378552
vn 0.653218 0.378552 0.655721
vn -0.653218 -0.757134 0.000000
vn -0.653218 0.757134 0.000000
vn 0.653218 0.655721 0.378552
vn 0.653218 -0.757134 0.000000
vn 0.653218 0.655721 -0.378552
vn 0.770257 -0.552263 0.318857
vn 0.770257 -0.637715 0.000000
vn 0.770257 0.318857 -0.552263
vn 0.770257 0.552263 -0.318857
vn 0.770257 -0.318857 0.552263
vn 0.770257 0.000000 -0.637715
vn 0.770257 0.318857 0.552263
vn 0.770257 0.000000 0.637715
vn 0.770257 -0.318857 -0.552263
vn 0.770257 0.552263 0.318857
vn 0.770257 -0.552263 -0.318857
vn 0.770257 0.637715 0.000000
vn 0.000000 0.757134 -0.653218
vn 0.000000 0.757134 0.653218
vn 0.378552 0.655721 0.653218
vn 0.680776 -0.264382 0.683065
vn 0.594592 -0.437025 0.674856
vn 0.677816 0.280221 -0.679708
vn 0.378552 -0.655721 -0.653218
vn 0.378552 -0.655721 0.653218
vn 0.000000 -0.757134 0.653218
vn 0.000000 -0.757134 -0.653218
vn -0.378552 -0.655721 -0.653218
vn -0.378552 -0.655721 0.653218
vn -0.655721 -0.378552 -0.653218
vn -0.655721 -0.378552 0.653218
vn -0.757134 0.000000 -0.653218
vn -0.757134 0.000000 0.653218
vn -0.655721 0.378552 -0.653218
vn 0.499741 -0.500015 -0.707266
vn 0.594592 -0.437025 -0.674856
vn -0.378552 0.655721 -0.653218
vn -0.378552 0.655721 0.653218
vn -0.655721 0.378552 0.653218
vn 0.581225 0.446730 -0.680135
vn 0.499222 0.500046 -0.707602
vn 0.499741 -0.500015 0.707266
vn 0.499924 0.500748 -0.706595
vn 0.581225 0.446730 0.680135
vn 0.757530 -0.000793 -0.652760
vn 0.680776 -0.264382 -0.683065
vn 0.757530 -0.000793 0.652760
vn 0.677816 0.280221 0.679708
vn 0.653218 0.757134 0.000000
vn 0.378552 0.655721 -0.653218
s 1
f 1/1/1 2/2/2 3/3/3
f 3/4/3 4/5/4 5/6/5
f 5/7/5 6/8/6 8/9/7
f 7/10/8 8/11/7 9/12/9
f 9/13/9 10/14/10 11/15/11
f 11/16/11 12/17/12 13/18/13
f 13/19/13 14/20/14 16/21/15
f 15/22/16 16/23/15 18/24/17
f 17/25/18 18/26/17 19/27/19
f 19/28/19 20/29/20 22/30/21
s off
f 2/31/22 24/32/22 25/33/22
s 1
f 23/34/23 24/35/24 2/36/2
f 21/37/25 22/38/21 24/39/24
f 30/40/26 29/41/27 41/42/28
s off
f 12/43/22 10/44/22 30/45/22
f 16/46/22 14/47/22 32/48/22
f 20/49/22 18/50/22 34/51/22
f 6/52/22 4/53/22 27/54/22
f 24/55/22 22/56/22 36/57/22
f 10/58/22 8/59/22 29/60/22
f 4/61/22 2/62/22 26/63/22
f 14/64/22 12/65/22 31/66/22
f 18/67/22 16/68/22 33/69/22
f 22/70/22 20/71/22 35/72/22
f 8/73/22 6/74/22 28/75/22
f 45/76/29 44/77/29 56/78/29
s 1
f 36/79/30 35/80/31 48/81/32
f 31/82/33 30/83/26 42/84/34
f 26/85/35 25/86/36 38/87/37
f 25/88/36 36/89/30 37/90/38
f 32/91/39 31/92/33 43/93/40
f 27/94/41 26/95/35 39/96/42
f 33/97/43 32/98/39 44/99/44
f 28/100/45 27/101/41 39/102/42
f 34/103/46 33/104/43 45/105/47
f 29/106/27 28/107/45 40/108/48
f 35/109/31 34/110/46 47/111/49
f 59/112/50 58/113/51 70/114/48
s off
f 40/115/29 39/116/29 51/117/29
f 46/118/29 45/119/29 57/120/29
f 41/121/29 40/122/29 52/123/29
f 47/124/29 46/125/29 58/126/29
f 42/127/29 41/128/29 53/129/29
f 48/130/29 47/131/29 59/132/29
f 43/133/29 42/134/29 54/135/29
f 38/136/29 37/137/29 49/138/29
f 37/139/29 48/140/29 60/141/29
f 44/142/29 43/143/29 55/144/29
f 39/145/29 38/146/29 50/147/29
s 1
f 62/148/44 61/149/40 63/150/47
f 54/151/52 53/152/53 66/153/32
f 60/154/54 59/155/50 71/156/28
f 55/157/55 54/158/52 67/159/38
f 50/160/56 49/161/57 61/162/40
f 49/163/57 60/164/54 72/165/34
f 56/166/58 55/167/55 68/168/37
f 51/169/59 50/170/56 62/171/44
f 57/172/60 56/173/58 69/174/42
f 52/175/61 51/176/59 63/177/47
f 58/178/51 57/179/60 70/180/48
f 53/181/53 52/182/61 65/183/49
f 73/184/62 74/185/63 76/186/64
f 11/187/11 101/188/65 77/189/66
f 103/190/67 23/191/23 1/192/1
f 9/193/9 77/194/66 7/195/8
f 81/196/68 82/197/69 84/198/70
f 83/199/71 84/200/70 85/201/72
f 85/202/72 86/203/73 87/204/74
f 87/205/74 88/206/75 89/207/76
f 89/208/76 90/209/77 91/210/78
f 7/211/8 97/212/79 78/213/80
f 93/214/81 94/215/82 73/216/62
f 91/217/78 92/218/83 93/219/81
f 21/220/25 95/221/84 98/222/85
f 97/223/79 7/224/8 104/225/86
f 23/226/23 103/227/67 95/228/84
f 3/229/3 5/230/5 78/231/80
f 19/232/19 99/233/87 17/234/18
f 15/235/16 17/236/18 96/237/88
f 99/238/87 19/239/19 98/240/85
f 101/241/65 11/242/11 13/243/13
f 79/244/89 1/245/1 100/246/90
f 80/247/91 13/248/13 102/249/92
f 99/250/87 76/251/64 96/252/88
f 93/253/81 73/254/62 91/255/78
f 2/2/2 4/256/4 3/3/3
f 4/5/4 6/257/6 5/6/5
f 7/258/8 5/7/5 8/9/7
f 8/11/7 10/259/10 9/12/9
f 10/14/10 12/260/12 11/15/11
f 12/17/12 14/261/14 13/18/13
f 15/262/16 13/19/13 16/21/15
f 17/263/18 15/22/16 18/24/17
f 18/26/17 20/264/20 19/27/19
f 21/265/25 19/28/19 22/30/21
s off
f 24/32/22 36/266/22 25/33/22
s 1
f 1/267/1 23/34/23 2/36/2
f 23/268/23 21/37/25 24/39/24
f 42/269/34 30/40/26 41/42/28
s off
f 10/44/22 29/270/22 30/45/22
f 14/47/22 31/271/22 32/48/22
f 18/50/22 33/272/22 34/51/22
f 4/53/22 26/273/22 27/54/22
f 22/56/22 35/274/22 36/57/22
f 8/59/22 28/275/22 29/60/22
f 2/62/22 25/276/22 26/63/22
f 12/65/22 30/277/22 31/66/22
f 16/68/22 32/278/22 33/69/22
f 20/71/22 34/279/22 35/72/22
f 6/74/22 27/280/22 28/75/22
f 57/281/29 45/76/29 56/78/29
s 1
f 35/80/31 47/282/49 48/81/32
f 43/283/40 31/82/33 42/84/34
f 25/86/36 37/284/38 38/87/37
f 36/89/30 48/285/32 37/90/38
f 44/286/44 32/91/39 43/93/40
f 26/95/35 38/287/37 39/96/42
f 45/288/47 33/97/43 44/99/44
f 40/289/48 28/100/45 39/102/42
f 46/290/93 34/103/46 45/105/47
f 41/291/28 29/106/27 40/108/48
f 34/110/46 46/292/93 47/111/49
f 71/293/28 59/112/50 70/114/48
s off
f 52/294/29 40/115/29 51/117/29
f 58/295/29 46/118/29 57/120/29
f 53/296/29 41/121/29 52/123/29
f 59/297/29 47/124/29 58/126/29
f 54/298/29 42/127/29 53/129/29
f 60/299/29 48/130/29 59/132/29
f 55/300/29 43/133/29 54/135/29
f 50/301/29 38/136/29 49/138/29
f 49/302/29 37/139/29 60/141/29
f 56/303/29 44/142/29 55/144/29
f 51/304/29 39/145/29 50/147/29
s 1
f 61/149/40 72/305/34 63/150/47
f 72/305/34 71/306/28 63/150/47
f 71/306/28 70/307/48 63/150/47
f 70/307/48 69/308/42 63/150/47
f 69/308/42 68/309/37 63/150/47
f 68/309/37 67/310/38 63/150/47
f 67/310/38 66/311/32 63/150/47
f 66/311/32 65/312/49 64/313/93
f 63/150/47 66/311/32 64/313/93
f 53/152/53 65/314/49 66/153/32
f 72/315/34 60/154/54 71/156/28
f 54/158/52 66/316/32 67/159/38
f 62/317/44 50/160/56 61/162/40
f 61/318/40 49/163/57 72/165/34
f 55/167/55 67/319/38 68/168/37
f 63/320/47 51/169/59 62/171/44
f 56/173/58 68/321/37 69/174/42
f 64/322/93 52/175/61 63/177/47
f 57/179/60 69/323/42 70/180/48
f 52/182/61 64/324/93 65/183/49
f 75/325/94 73/184/62 76/186/64
f 9/326/9 11/187/11 77/189/66
f 79/327/89 103/190/67 1/192/1
f 77/194/66 104/328/86 7/195/8
f 83/329/71 81/196/68 84/198/70
f 84/200/70 86/330/73 85/201/72
f 86/203/73 88/331/75 87/204/74
f 88/206/75 90/332/77 89/207/76
f 90/209/77 92/333/83 91/210/78
f 5/334/5 7/211/8 78/213/80
f 94/215/82 74/335/63 73/216/62
f 92/218/83 94/336/82 93/219/81
f 19/337/19 21/220/25 98/222/85
f 81/338/68 97/223/79 104/225/86
f 82/339/69 81/338/68 104/225/86
f 21/340/25 23/226/23 95/228/84
f 100/341/90 3/229/3 78/231/80
f 99/233/87 96/342/88 17/234/18
f 102/343/92 15/235/16 96/237/88
f 76/344/64 99/238/87 98/240/85
f 75/345/94 76/344/64 98/240/85
f 80/346/91 101/241/65 13/243/13
f 1/245/1 3/347/3 100/246/90
f 13/248/13 15/348/16 102/249/92
f 76/251/64 74/349/63 96/252/88
f 74/349/63 94/350/82 96/252/88
f 94/350/82 92/351/83 96/252/88
f 92/351/83 90/352/77 96/252/88
f 90/352/77 88/353/75 96/252/88
f 88/353/75 86/354/73 96/252/88
f 86/354/73 84/355/70 96/252/88
f 84/355/70 82/356/69 96/252/88
f 82/356/69 104/357/86 96/252/88
f 104/357/86 77/358/66 96/252/88
f 77/358/66 101/359/65 96/252/88
f 101/359/65 80/360/91 96/252/88
f 80/360/91 102/361/92 96/252/88
f 73/254/62 75/362/94 91/255/78
f 75/362/94 98/363/85 91/255/78
f 98/363/85 95/364/84 91/255/78
f 95/364/84 103/365/67 91/255/78
f 103/365/67 79/366/89 91/255/78
f 79/366/89 100/367/90 91/255/78
f 100/367/90 78/368/80 91/255/78
f 78/368/80 97/369/79 91/255/78
f 97/369/79 81/370/68 91/255/78
f 81/370/68 83/371/71 91/255/78
f 83/371/71 85/372/72 91/255/78
f 85/372/72 87/373/74 89/374/76
f 91/255/78 85/372/72 89/374/76
