# Blender v2.66 (sub 1) OBJ File: 'small_tank.blend'
# www.blender.org
v 0.027097 0.000409 0.039157
v 0.027097 0.000409 0.246140
v 0.023467 -0.013140 0.035794
v 0.023467 -0.013140 0.246140
v 0.013549 -0.023058 0.030003
v 0.013549 -0.023058 0.246140
v -0.000000 -0.026689 0.027014
v -0.000000 -0.026689 0.246140
v -0.013549 -0.023058 0.030003
v -0.013549 -0.023058 0.246140
v -0.023467 -0.013140 0.035794
v -0.023467 -0.013140 0.246140
v -0.027097 0.000409 0.039157
v -0.027098 0.000409 0.246140
v -0.023467 0.013957 0.035794
v -0.023467 0.013957 0.246140
v -0.013549 0.023876 0.030003
v -0.013549 0.023876 0.246140
v -0.000000 0.027506 0.027014
v -0.000000 0.027506 0.246140
v 0.013549 0.023876 0.030003
v 0.013549 0.023876 0.246140
v 0.023467 0.013957 0.035794
v 0.023467 0.013957 0.246140
v 0.033755 0.000409 0.246140
v 0.029232 -0.016469 0.246140
v 0.016877 -0.028824 0.246140
v -0.000000 -0.033346 0.246140
v -0.016877 -0.028824 0.246140
v -0.029233 -0.016469 0.246140
v -0.033755 0.000409 0.246140
v -0.029233 0.017286 0.246140
v -0.016877 0.029641 0.246140
v -0.000000 0.034163 0.246140
v 0.016877 0.029641 0.246140
v 0.029232 0.017286 0.246140
v 0.033755 0.000409 0.348101
v 0.029232 -0.016469 0.348101
v 0.016877 -0.028824 0.348101
v -0.000000 -0.033346 0.348101
v -0.016877 -0.028824 0.348101
v -0.029233 -0.016469 0.348101
v -0.033755 0.000409 0.348101
v -0.029233 0.017286 0.348101
v -0.016877 0.029641 0.348101
v -0.000000 0.034163 0.348101
v 0.016877 0.029641 0.348101
v 0.029232 0.017286 0.348101
v 0.022607 0.000409 0.348101
v 0.019578 -0.010895 0.348101
v 0.011304 -0.019170 0.348101
v -0.000000 -0.022199 0.348101
v -0.011304 -0.019170 0.348101
v -0.019579 -0.010895 0.348101
v -0.022607 0.000409 0.348101
v -0.019579 0.011712 0.348101
v -0.011304 0.019987 0.348101
v -0.000000 0.023016 0.348101
v 0.011304 0.019987 0.348101
v 0.019578 0.011712 0.348101
v 0.022607 0.000409 0.051471
v 0.019578 -0.010895 0.051471
v 0.011304 -0.019170 0.051471
v -0.000000 -0.022199 0.051471
v -0.011304 -0.019170 0.051471
v -0.019579 -0.010895 0.051471
v -0.022607 0.000409 0.051471
v -0.019579 0.011712 0.051471
v -0.011304 0.019987 0.051471
v -0.000000 0.023016 0.051471
v 0.011304 0.019987 0.051471
v 0.019578 0.011712 0.051471
v 0.089185 0.039243 -0.000008
v -0.089185 0.039243 -0.000008
v 0.089185 0.033986 0.019612
v -0.089185 0.033986 0.019612
v -0.089185 -0.023152 0.030439
v 0.089185 -0.023152 0.030439
v 0.089185 0.000003 0.039232
v -0.089185 0.000003 0.039232
v 0.089185 -0.033979 0.019612
v -0.089185 -0.033979 0.019612
v 0.089185 -0.039236 -0.000008
v -0.089185 -0.039236 -0.000008
v 0.089185 -0.033979 -0.019627
v -0.089185 -0.033979 -0.019627
v 0.089185 -0.019617 -0.033990
v -0.089185 -0.019617 -0.033990
v 0.089185 0.000003 -0.039247
v -0.089185 0.000003 -0.039247
v 0.089185 0.019623 -0.033990
v -0.089185 0.019623 -0.033990
v 0.089185 0.033986 -0.019627
v -0.089185 0.033986 -0.019627
v 0.089185 0.023789 0.029809
v -0.089185 0.023789 0.029809
v 0.089185 -0.026525 0.027066
v 0.089185 0.027126 0.026472
v -0.089185 0.027126 0.026472
v 0.089185 -0.013003 0.035747
v -0.089185 -0.013003 0.035747
v -0.089185 0.013966 0.035491
v 0.089185 0.013966 0.035491
v -0.089185 -0.026525 0.027066
vt 0.057500 0.245000
vt 0.057500 0.005000
vt 0.005000 0.005000
vt 0.005000 0.307500
vt 0.245000 0.307500
vt 0.245000 0.255000
vt 0.120000 0.245000
vt 0.120000 0.005000
vt 0.067500 0.005000
vt 0.005000 0.370000
vt 0.245000 0.370000
vt 0.245000 0.317500
vt 0.182500 0.245000
vt 0.182500 0.005000
vt 0.130000 0.005000
vt 0.192500 0.245000
vt 0.432500 0.245000
vt 0.432500 0.192500
vt 0.495000 0.495000
vt 0.495000 0.255000
vt 0.442500 0.495000
vt 0.005000 0.432500
vt 0.245000 0.432500
vt 0.005000 0.380000
vt 0.307500 0.495000
vt 0.307500 0.255000
vt 0.255000 0.495000
vt 0.192500 0.182500
vt 0.432500 0.182500
vt 0.192500 0.130000
vt 0.932500 0.942500
vt 0.880000 0.942500
vt 0.880000 0.995000
vt 0.495000 0.245000
vt 0.495000 0.005000
vt 0.442500 0.245000
vt 0.192500 0.120000
vt 0.432500 0.120000
vt 0.192500 0.067500
vt 0.370000 0.255000
vt 0.317500 0.255000
vt 0.370000 0.495000
vt 0.995000 0.630000
vt 0.942500 0.630000
vt 0.942500 0.682500
vt 0.995000 0.692500
vt 0.942500 0.692500
vt 0.942500 0.745000
vt 0.870000 0.942500
vt 0.817500 0.942500
vt 0.817500 0.995000
vt 0.995000 0.442500
vt 0.942500 0.442500
vt 0.942500 0.495000
vt 0.995000 0.505000
vt 0.942500 0.505000
vt 0.942500 0.557500
vt 0.995000 0.567500
vt 0.942500 0.567500
vt 0.942500 0.620000
vt 0.057500 0.942500
vt 0.005000 0.942500
vt 0.005000 0.995000
vt 0.245000 0.942500
vt 0.192500 0.942500
vt 0.192500 0.995000
vt 0.807500 0.942500
vt 0.755000 0.942500
vt 0.755000 0.995000
vt 0.995000 0.005000
vt 0.942500 0.005000
vt 0.942500 0.057500
vt 0.995000 0.192500
vt 0.942500 0.192500
vt 0.942500 0.245000
vt 0.995000 0.255000
vt 0.942500 0.255000
vt 0.942500 0.307500
vt 0.245000 0.682500
vt 0.245000 0.630000
vt 0.005000 0.630000
vt 0.745000 0.505000
vt 0.692500 0.505000
vt 0.745000 0.745000
vt 0.495000 0.682500
vt 0.495000 0.630000
vt 0.255000 0.630000
vt 0.682500 0.505000
vt 0.630000 0.505000
vt 0.630000 0.745000
vt 0.245000 0.745000
vt 0.245000 0.692500
vt 0.005000 0.745000
vt 0.620000 0.505000
vt 0.567500 0.505000
vt 0.567500 0.745000
vt 0.495000 0.745000
vt 0.495000 0.692500
vt 0.255000 0.745000
vt 0.745000 0.255000
vt 0.692500 0.255000
vt 0.692500 0.495000
vt 0.745000 0.807500
vt 0.745000 0.755000
vt 0.505000 0.807500
vt 0.745000 0.005000
vt 0.692500 0.005000
vt 0.745000 0.245000
vt 0.245000 0.807500
vt 0.245000 0.755000
vt 0.005000 0.755000
vt 0.557500 0.505000
vt 0.505000 0.505000
vt 0.557500 0.745000
vt 0.932500 0.630000
vt 0.880000 0.630000
vt 0.880000 0.682500
vt 0.932500 0.567500
vt 0.880000 0.567500
vt 0.880000 0.620000
vt 0.995000 0.880000
vt 0.942500 0.880000
vt 0.942500 0.932500
vt 0.932500 0.880000
vt 0.880000 0.880000
vt 0.880000 0.932500
vt 0.932500 0.817500
vt 0.880000 0.817500
vt 0.880000 0.870000
vt 0.870000 0.880000
vt 0.817500 0.880000
vt 0.817500 0.932500
vt 0.932500 0.692500
vt 0.880000 0.692500
vt 0.880000 0.745000
vt 0.807500 0.880000
vt 0.755000 0.880000
vt 0.755000 0.932500
vt 0.932500 0.505000
vt 0.880000 0.505000
vt 0.880000 0.557500
vt 0.870000 0.817500
vt 0.817500 0.817500
vt 0.817500 0.870000
vt 0.807500 0.817500
vt 0.755000 0.817500
vt 0.755000 0.870000
vt 0.981983 0.404377
vt 0.974913 0.404377
vt 0.988106 0.407912
vt 0.245000 0.932500
vt 0.245000 0.880000
vt 0.005000 0.880000
vt 0.870000 0.505000
vt 0.817500 0.505000
vt 0.870000 0.745000
vt 0.995000 0.807500
vt 0.995000 0.755000
vt 0.755000 0.755000
vt 0.932500 0.255000
vt 0.880000 0.255000
vt 0.932500 0.495000
vt 0.745000 0.995000
vt 0.745000 0.942500
vt 0.505000 0.995000
vt 0.932500 0.005000
vt 0.880000 0.005000
vt 0.880000 0.245000
vt 0.495000 0.995000
vt 0.495000 0.942500
vt 0.255000 0.995000
vt 0.870000 0.005000
vt 0.817500 0.005000
vt 0.817500 0.245000
vt 0.495000 0.932500
vt 0.495000 0.880000
vt 0.255000 0.932500
vt 0.870000 0.255000
vt 0.817500 0.255000
vt 0.817500 0.495000
vt 0.745000 0.932500
vt 0.745000 0.880000
vt 0.505000 0.880000
vt 0.807500 0.245000
vt 0.807500 0.005000
vt 0.755000 0.245000
vt 0.505000 0.870000
vt 0.745000 0.870000
vt 0.505000 0.817500
vt 0.807500 0.495000
vt 0.807500 0.255000
vt 0.755000 0.255000
vt 0.005000 0.870000
vt 0.245000 0.870000
vt 0.005000 0.817500
vt 0.807500 0.745000
vt 0.807500 0.505000
vt 0.755000 0.505000
vt 0.255000 0.807500
vt 0.495000 0.807500
vt 0.495000 0.755000
vt 0.682500 0.495000
vt 0.682500 0.255000
vt 0.630000 0.255000
vt 0.255000 0.620000
vt 0.495000 0.620000
vt 0.495000 0.567500
vt 0.682500 0.245000
vt 0.682500 0.005000
vt 0.630000 0.005000
vt 0.005000 0.620000
vt 0.245000 0.620000
vt 0.245000 0.567500
vt 0.620000 0.245000
vt 0.620000 0.005000
vt 0.567500 0.005000
vt 0.005000 0.557500
vt 0.245000 0.557500
vt 0.005000 0.505000
vt 0.620000 0.495000
vt 0.620000 0.255000
vt 0.567500 0.255000
vt 0.992684 0.124897
vt 0.992968 0.180234
vt 0.973302 0.180234
vt 0.255000 0.557500
vt 0.495000 0.557500
vt 0.495000 0.505000
vt 0.557500 0.005000
vt 0.505000 0.005000
vt 0.505000 0.245000
vt 0.005000 0.495000
vt 0.245000 0.495000
vt 0.245000 0.442500
vt 0.557500 0.255000
vt 0.505000 0.255000
vt 0.557500 0.495000
vt 0.965085 0.180953
vt 0.944135 0.180953
vt 0.965088 0.069817
vt 0.192500 0.057500
vt 0.432500 0.057500
vt 0.192500 0.005000
vt 0.432500 0.495000
vt 0.432500 0.255000
vt 0.380000 0.255000
vt 0.255000 0.870000
vt 0.495000 0.870000
vt 0.495000 0.817500
vt 0.148368 0.990325
vt 0.131604 0.973561
vt 0.137740 0.984189
vt 0.071667 0.964977
vt 0.071667 0.973689
vt 0.071667 0.967828
vt 0.005000 0.245000
vt 0.005000 0.255000
vt 0.067500 0.245000
vt 0.005000 0.317500
vt 0.130000 0.245000
vt 0.192500 0.192500
vt 0.442500 0.255000
vt 0.245000 0.380000
vt 0.255000 0.255000
vt 0.432500 0.130000
vt 0.932500 0.995000
vt 0.442500 0.005000
vt 0.432500 0.067500
vt 0.317500 0.495000
vt 0.995000 0.682500
vt 0.995000 0.745000
vt 0.870000 0.995000
vt 0.995000 0.495000
vt 0.995000 0.557500
vt 0.995000 0.620000
vt 0.057500 0.995000
vt 0.245000 0.995000
vt 0.807500 0.995000
vt 0.995000 0.057500
vt 0.995000 0.245000
vt 0.995000 0.307500
vt 0.005000 0.682500
vt 0.692500 0.745000
vt 0.255000 0.682500
vt 0.682500 0.745000
vt 0.005000 0.692500
vt 0.620000 0.745000
vt 0.255000 0.692500
vt 0.745000 0.495000
vt 0.505000 0.755000
vt 0.692500 0.245000
vt 0.005000 0.807500
vt 0.505000 0.745000
vt 0.932500 0.682500
vt 0.932500 0.620000
vt 0.995000 0.932500
vt 0.932500 0.932500
vt 0.932500 0.870000
vt 0.870000 0.932500
vt 0.932500 0.745000
vt 0.807500 0.932500
vt 0.932500 0.557500
vt 0.870000 0.870000
vt 0.807500 0.870000
vt 0.968789 0.407912
vt 0.965254 0.414035
vt 0.965254 0.421106
vt 0.968789 0.427229
vt 0.974913 0.430764
vt 0.981983 0.430764
vt 0.988106 0.427229
vt 0.991641 0.421106
vt 0.991641 0.414035
vt 0.005000 0.932500
vt 0.817500 0.745000
vt 0.755000 0.807500
vt 0.880000 0.495000
vt 0.505000 0.942500
vt 0.932500 0.245000
vt 0.255000 0.942500
vt 0.870000 0.245000
vt 0.255000 0.880000
vt 0.870000 0.495000
vt 0.505000 0.932500
vt 0.755000 0.005000
vt 0.745000 0.817500
vt 0.755000 0.495000
vt 0.245000 0.817500
vt 0.755000 0.745000
vt 0.255000 0.755000
vt 0.630000 0.495000
vt 0.255000 0.567500
vt 0.630000 0.245000
vt 0.005000 0.567500
vt 0.567500 0.245000
vt 0.245000 0.505000
vt 0.567500 0.495000
vt 0.992968 0.069560
vt 0.973302 0.069560
vt 0.255000 0.505000
vt 0.557500 0.245000
vt 0.005000 0.442500
vt 0.505000 0.495000
vt 0.944659 0.125384
vt 0.944138 0.069817
vt 0.432500 0.005000
vt 0.380000 0.495000
vt 0.255000 0.817500
vt 0.131604 0.961290
vt 0.160640 0.990325
vt 0.171268 0.984189
vt 0.177404 0.973561
vt 0.177404 0.961290
vt 0.140805 0.948892
vt 0.156503 0.944526
vt 0.148368 0.944526
vt 0.171268 0.950662
vt 0.135960 0.953745
vt 0.163256 0.946036
vt 0.165752 0.947477
vt 0.134535 0.956214
vt 0.088431 0.990453
vt 0.077803 0.984317
vt 0.100703 0.990453
vt 0.073436 0.958353
vt 0.077803 0.950790
vt 0.084848 0.946722
vt 0.091452 0.944654
vt 0.094334 0.944654
vt 0.100703 0.944654
vt 0.111331 0.950790
vt 0.117467 0.961417
vt 0.117467 0.973689
vt 0.111331 0.984317
vn 0.701956 0.002045 0.712210
vn 0.637715 0.000000 -0.770257
vn 0.552263 -0.318857 -0.770257
vn 0.504440 -0.604022 0.616962
vn 0.318857 -0.552263 -0.770257
vn 0.223029 -0.828303 0.513962
vn 0.000000 -0.637715 -0.770257
vn 0.000427 -0.891201 0.453597
vn -0.318857 -0.552263 -0.770257
vn -0.223914 -0.827967 0.514084
vn -0.552263 -0.318857 -0.770257
vn -0.506180 -0.606128 0.613453
vn -0.637715 0.000000 -0.770257
vn -0.701132 0.000885 0.713004
vn -0.507431 0.606250 0.612323
vn -0.552263 0.318857 -0.770257
vn -0.227210 0.833522 0.503586
vn -0.318857 0.552263 -0.770257
vn 0.000214 0.974761 -0.223121
vn 0.000000 0.637715 -0.770257
vn 0.228645 0.836848 0.497360
vn 0.000000 -0.000000 -1.000000
vn 0.507920 0.605304 0.612842
vn 0.552263 0.318857 -0.770257
vn 0.318857 0.552263 -0.770257
vn -0.655721 -0.378552 -0.653218
vn -0.378552 -0.655721 -0.653218
vn -0.655721 -0.378552 0.653218
vn 0.000000 -0.000000 1.000000
vn 0.655721 0.378552 -0.653218
vn 0.378552 0.655721 -0.653218
vn 0.378552 0.655721 0.653218
vn -0.757134 0.000000 -0.653218
vn -0.757134 0.000000 0.653218
vn 0.655721 -0.378552 -0.653218
vn 0.757134 0.000000 -0.653218
vn 0.757134 0.000000 0.653218
vn 0.655721 0.378552 0.653218
vn -0.655721 0.378552 -0.653218
vn -0.655721 0.378552 0.653218
vn 0.378552 -0.655721 -0.653218
vn 0.655721 -0.378552 0.653218
vn -0.378552 0.655721 -0.653218
vn -0.378552 0.655721 0.653218
vn 0.000000 -0.757134 -0.653218
vn 0.378552 -0.655721 0.653218
vn 0.000000 0.757134 -0.653218
vn 0.000000 0.757134 0.653218
vn -0.378552 -0.655721 0.653218
vn -0.318857 -0.552263 0.770257
vn 0.000000 -0.637715 0.770257
vn 0.552263 0.318857 0.770257
vn 0.318857 0.552263 0.770257
vn -0.552263 -0.318857 0.770257
vn 0.637715 0.000000 0.770257
vn -0.552263 0.318857 0.770257
vn -0.637715 0.000000 0.770257
vn 0.552263 -0.318857 0.770257
vn -0.318857 0.552263 0.770257
vn 0.318857 -0.552263 0.770257
vn 0.000000 0.637715 0.770257
vn 0.653218 0.757134 0.000000
vn -0.653218 0.757134 0.000000
vn 0.653157 0.655751 0.378582
vn -0.682516 -0.267006 0.680319
vn 0.679708 0.280221 0.677816
vn -0.673666 -0.436293 0.596484
vn 0.653218 -0.655721 0.378552
vn -0.653371 -0.655690 0.378307
vn -0.653218 -0.757134 0.000000
vn 0.653218 -0.757134 0.000000
vn -0.653218 -0.655721 -0.378552
vn 0.653218 -0.655721 -0.378552
vn -0.653218 -0.378552 -0.655721
vn 0.653218 -0.378552 -0.655721
vn -0.653218 0.000000 -0.757134
vn 0.653218 0.000000 -0.757134
vn -0.653218 0.378552 -0.655721
vn 0.707266 -0.500015 0.499741
vn 0.674856 -0.437025 0.594592
vn 0.653218 0.655721 -0.378552
vn -0.653218 0.655721 -0.378552
vn 0.653218 0.378552 -0.655721
vn 0.680074 0.446760 0.581256
vn -0.706565 0.500778 0.499954
vn -0.707419 -0.499771 0.499771
vn -0.708396 0.500229 0.497909
vn -0.680776 0.445296 0.581561
vn -0.680135 0.281137 0.676992
vn -0.653218 0.655721 0.378552
vn -0.654073 -0.000763 0.756401
vn 0.653432 0.000153 0.756951
vn 0.000000 -0.757134 0.653218
vn 0.683706 -0.265023 0.679891
s 1
f 1/1/1 2/2/2 4/3/3
f 3/4/4 4/5/3 6/6/5
f 5/7/6 6/8/5 8/9/7
f 7/10/8 8/11/7 10/12/9
f 9/13/10 10/14/9 12/15/11
f 11/16/12 12/17/11 14/18/13
f 13/19/14 14/20/13 15/21/15
f 15/22/15 16/23/16 17/24/17
f 17/25/17 18/26/18 19/27/19
f 19/28/19 20/29/20 21/30/21
s off
f 2/31/22 24/32/22 36/33/22
s 1
f 23/34/23 24/35/24 1/36/1
f 21/37/21 22/38/25 23/39/23
f 30/40/26 29/41/27 42/42/28
s off
f 12/43/22 10/44/22 29/45/22
f 16/46/22 14/47/22 31/48/22
f 20/49/22 18/50/22 33/51/22
f 6/52/22 4/53/22 26/54/22
f 24/55/22 22/56/22 35/57/22
f 10/58/22 8/59/22 28/60/22
f 4/61/22 2/62/22 25/63/22
f 14/64/22 12/65/22 30/66/22
f 18/67/22 16/68/22 32/69/22
f 22/70/22 20/71/22 34/72/22
f 8/73/22 6/74/22 27/75/22
f 45/76/29 44/77/29 56/78/29
s 1
f 36/79/30 35/80/31 47/81/32
f 31/82/33 30/83/26 43/84/34
f 26/85/35 25/86/36 37/87/37
f 25/88/36 36/89/30 48/90/38
f 32/91/39 31/92/33 44/93/40
f 27/94/41 26/95/35 38/96/42
f 33/97/43 32/98/39 45/99/44
f 28/100/45 27/101/41 39/102/46
f 34/103/47 33/104/43 46/105/48
f 29/106/27 28/107/45 41/108/49
f 35/109/31 34/110/47 46/111/48
f 59/112/50 58/113/51 71/114/49
s off
f 40/115/29 39/116/29 51/117/29
f 46/118/29 45/119/29 57/120/29
f 41/121/29 40/122/29 52/123/29
f 47/124/29 46/125/29 58/126/29
f 42/127/29 41/128/29 53/129/29
f 48/130/29 47/131/29 59/132/29
f 43/133/29 42/134/29 54/135/29
f 38/136/29 37/137/29 49/138/29
f 37/139/29 48/140/29 60/141/29
f 44/142/29 43/143/29 55/144/29
f 39/145/29 38/146/29 50/147/29
s 1
f 62/148/40 61/149/34 63/150/44
f 54/151/52 53/152/53 65/153/32
f 60/154/54 59/155/50 72/156/28
f 55/157/55 54/158/52 66/159/38
f 50/160/56 49/161/57 62/162/40
f 49/163/57 60/164/54 61/165/34
f 56/166/58 55/167/55 67/168/37
f 51/169/59 50/170/56 63/171/44
f 57/172/60 56/173/58 68/174/42
f 52/175/61 51/176/59 64/177/48
f 58/178/51 57/179/60 69/180/46
f 53/181/53 52/182/61 64/183/48
f 73/184/62 74/185/63 75/186/64
f 11/187/12 101/188/65 9/189/10
f 103/190/66 23/191/23 1/192/1
f 9/193/10 77/194/67 7/195/8
f 81/196/68 82/197/69 84/198/70
f 83/199/71 84/200/70 86/201/72
f 85/202/73 86/203/72 88/204/74
f 87/205/75 88/206/74 90/207/76
f 89/208/77 90/209/76 92/210/78
f 7/211/8 97/212/79 78/213/80
f 93/214/81 94/215/82 74/216/63
f 91/217/83 92/218/78 93/219/81
f 21/220/21 95/221/84 98/222/85
f 7/223/8 104/224/86 82/225/69
f 23/226/23 103/227/66 95/228/84
f 3/229/4 5/230/6 78/231/80
f 19/232/19 99/233/87 96/234/88
f 15/235/15 17/236/17 102/237/89
f 76/238/90 99/239/87 75/240/64
f 101/241/65 11/242/12 80/243/91
f 79/244/92 1/245/1 3/246/4
f 80/247/91 13/248/14 15/249/15
f 92/250/78 74/251/63 94/252/82
f 95/253/84 75/254/64 98/255/85
f 3/256/4 1/1/1 4/3/3
f 5/257/6 3/4/4 6/6/5
f 7/258/8 5/7/6 8/9/7
f 9/259/10 7/10/8 10/12/9
f 11/260/12 9/13/10 12/15/11
f 13/261/14 11/16/12 14/18/13
f 14/20/13 16/262/16 15/21/15
f 16/23/16 18/263/18 17/24/17
f 18/26/18 20/264/20 19/27/19
f 20/29/20 22/265/25 21/30/21
s off
f 25/266/22 2/31/22 36/33/22
s 1
f 24/35/24 2/267/2 1/36/1
f 22/38/25 24/268/24 23/39/23
f 29/41/27 41/269/49 42/42/28
s off
f 30/270/22 12/43/22 29/45/22
f 32/271/22 16/46/22 31/48/22
f 34/272/22 20/49/22 33/51/22
f 27/273/22 6/52/22 26/54/22
f 36/274/22 24/55/22 35/57/22
f 29/275/22 10/58/22 28/60/22
f 26/276/22 4/61/22 25/63/22
f 31/277/22 14/64/22 30/66/22
f 33/278/22 18/67/22 32/69/22
f 35/279/22 22/70/22 34/72/22
f 28/280/22 8/73/22 27/75/22
f 57/281/29 45/76/29 56/78/29
s 1
f 48/282/38 36/79/30 47/81/32
f 30/83/26 42/283/28 43/84/34
f 38/284/42 26/85/35 37/87/37
f 37/285/37 25/88/36 48/90/38
f 31/92/33 43/286/34 44/93/40
f 39/287/46 27/94/41 38/96/42
f 32/98/39 44/288/40 45/99/44
f 40/289/93 28/100/45 39/102/46
f 33/104/43 45/290/44 46/105/48
f 28/107/45 40/291/93 41/108/49
f 47/292/32 35/109/31 46/111/48
f 58/113/51 70/293/93 71/114/49
s off
f 52/294/29 40/115/29 51/117/29
f 58/295/29 46/118/29 57/120/29
f 53/296/29 41/121/29 52/123/29
f 59/297/29 47/124/29 58/126/29
f 54/298/29 42/127/29 53/129/29
f 60/299/29 48/130/29 59/132/29
f 55/300/29 43/133/29 54/135/29
f 50/301/29 38/136/29 49/138/29
f 49/302/29 37/139/29 60/141/29
f 56/303/29 44/142/29 55/144/29
f 51/304/29 39/145/29 50/147/29
s 1
f 61/149/34 72/305/28 63/150/44
f 72/305/28 71/306/49 63/150/44
f 71/306/49 70/307/93 63/150/44
f 70/307/93 69/308/46 63/150/44
f 69/308/46 68/309/42 63/150/44
f 68/309/42 67/310/37 63/150/44
f 67/310/37 66/311/38 63/150/44
f 66/311/38 65/312/32 64/313/48
f 63/150/44 66/311/38 64/313/48
f 66/314/38 54/151/52 65/153/32
f 59/155/50 71/315/49 72/156/28
f 67/316/37 55/157/55 66/159/38
f 49/161/57 61/317/34 62/162/40
f 60/164/54 72/318/28 61/165/34
f 68/319/42 56/166/58 67/168/37
f 50/170/56 62/320/40 63/171/44
f 69/321/46 57/172/60 68/174/42
f 51/176/59 63/322/44 64/177/48
f 70/323/93 58/178/51 69/180/46
f 65/324/32 53/181/53 64/183/48
f 74/185/63 76/325/90 75/186/64
f 101/188/65 77/326/67 9/189/10
f 79/327/92 103/190/66 1/192/1
f 77/194/67 104/328/86 7/195/8
f 83/329/71 81/196/68 84/198/70
f 85/330/73 83/199/71 86/201/72
f 87/331/75 85/202/73 88/204/74
f 89/332/77 87/205/75 90/207/76
f 91/333/83 89/208/77 92/210/78
f 5/334/6 7/211/8 78/213/80
f 73/335/62 93/214/81 74/216/63
f 92/218/78 94/336/82 93/219/81
f 19/337/19 21/220/21 98/222/85
f 97/338/79 7/223/8 82/225/69
f 81/339/68 97/338/79 82/225/69
f 21/340/21 23/226/23 95/228/84
f 100/341/94 3/229/4 78/231/80
f 17/342/17 19/232/19 96/234/88
f 17/236/17 96/343/88 102/237/89
f 99/239/87 19/344/19 98/345/85
f 75/240/64 99/239/87 98/345/85
f 11/242/12 13/346/14 80/243/91
f 100/347/94 79/244/92 3/246/4
f 102/348/89 80/247/91 15/249/15
f 76/349/90 74/251/63 92/250/78
f 76/349/90 92/250/78 90/350/76
f 76/349/90 90/350/76 88/351/74
f 76/349/90 88/351/74 86/352/72
f 76/349/90 86/352/72 84/353/70
f 102/354/89 101/355/65 80/356/91
f 76/349/90 84/353/70 82/357/69
f 96/358/88 101/355/65 102/354/89
f 96/358/88 77/359/67 101/355/65
f 76/349/90 82/357/69 104/360/86
f 99/361/87 76/349/90 104/360/86
f 96/358/88 99/361/87 77/359/67
f 99/361/87 104/360/86 77/359/67
f 93/362/81 73/363/62 91/364/83
f 73/363/62 75/254/64 91/364/83
f 75/254/64 95/253/84 91/364/83
f 95/253/84 103/365/66 91/364/83
f 103/365/66 79/366/92 91/364/83
f 79/366/92 100/367/94 91/364/83
f 100/367/94 78/368/80 91/364/83
f 78/368/80 97/369/79 91/364/83
f 97/369/79 81/370/68 91/364/83
f 81/370/68 83/371/71 91/364/83
f 83/371/71 85/372/73 91/364/83
f 85/372/73 87/373/75 89/374/77
f 91/364/83 85/372/73 89/374/77
